<?xml version="1.0" standalone="no"?>
<!DOCTYPE svg PUBLIC "-//W3C//DTD SVG 20010904//EN"
 "http://www.w3.org/TR/2001/REC-SVG-20010904/DTD/svg10.dtd">
<svg version="1.0" xmlns="http://www.w3.org/2000/svg"
 width="189.000000pt" height="189.000000pt" viewBox="0 0 189.000000 189.000000"
 preserveAspectRatio="xMidYMid meet">
<metadata>
Created by potrace 1.14, written by Peter Selinger 2001-2017
</metadata>
<g transform="translate(0.000000,189.000000) scale(0.100000,-0.100000)"
fill="#000000" stroke="none">
<path d="M853 1359 c-115 -22 -189 -101 -178 -190 10 -80 70 -120 220 -149 61
-11 121 -25 134 -31 21 -9 22 -12 10 -24 -32 -32 -150 -21 -182 17 -17 21 -26
22 -219 22 l-201 1 -28 -27 c-44 -44 -115 -33 -144 21 -8 17 -15 34 -15 38 0
5 93 8 208 8 l207 1 3 37 c5 53 -22 136 -58 179 -17 20 -56 49 -88 65 -53 26
-65 28 -182 28 -110 0 -131 -3 -177 -24 -223 -100 -210 -421 20 -497 58 -19
196 -25 270 -12 78 14 156 63 185 113 7 13 17 7 58 -34 46 -46 60 -53 154 -78
8 -3 60 -5 115 -6 130 -1 203 20 261 79 l41 41 1 -96 c0 -53 1 -102 1 -109 1
-10 28 -12 114 -10 l112 3 -1 77 -1 77 30 -25 c76 -64 155 -74 230 -31 180
106 178 433 -3 525 -79 39 -178 22 -242 -43 l-28 -28 0 40 0 39 -105 1 -105 1
-1 -27 c-1 -14 -1 -79 -1 -143 0 -108 -7 -141 -21 -103 -4 8 -23 25 -44 38
-38 24 -62 31 -138 42 -100 13 -122 17 -147 27 -33 12 -36 34 -7 43 29 10 116
-4 130 -21 14 -18 209 -21 209 -3 0 6 -7 26 -16 45 -33 68 -114 104 -249 108
-49 2 -109 0 -132 -5z m-458 -144 c14 -13 25 -32 25 -42 0 -16 -10 -18 -85
-18 -47 0 -85 3 -85 8 0 19 31 66 47 70 44 12 75 6 98 -18z m1233 -58 c9 -36
10 -79 3 -159 -3 -48 -75 -74 -117 -44 -17 13 -19 28 -20 125 -1 122 5 136 61
143 40 5 61 -14 73 -65z"/>
<path d="M80 682 c-36 -5 -70 -41 -70 -73 0 -50 19 -77 59 -83 65 -11 76 -4
76 44 0 41 -2 44 -27 45 -21 2 -28 -3 -28 -17 0 -11 4 -17 9 -14 5 3 12 -1 15
-9 6 -18 -16 -30 -39 -21 -23 8 -34 47 -22 74 10 21 28 27 70 23 9 -1 17 4 17
12 0 17 -24 24 -60 19z"/>
<path d="M306 669 c-45 -35 -43 -114 5 -139 29 -16 86 -4 100 22 6 11 11 36
12 54 2 64 -68 101 -117 63z m60 -17 c32 -21 21 -102 -14 -102 -41 0 -57 57
-25 92 18 20 23 21 39 10z"/>
<path d="M452 681 c-6 -5 -9 -121 -3 -153 2 -13 75 -8 94 6 19 15 23 46 6 63
-8 8 -8 17 1 33 10 18 9 25 -3 38 -15 15 -79 24 -95 13z m63 -41 c0 -8 -8 -16
-17 -18 -13 -2 -18 3 -18 18 0 15 5 20 18 18 9 -2 17 -10 17 -18z m5 -71 c0
-12 -7 -19 -20 -19 -22 0 -29 35 -7 43 18 6 27 -2 27 -24z"/>
<path d="M627 677 c-15 -12 -61 -147 -52 -155 9 -9 37 9 42 26 6 25 44 21 54
-6 9 -22 39 -31 39 -11 0 28 -43 148 -55 153 -7 2 -20 -1 -28 -7z m20 -86
c-15 -6 -20 8 -12 36 l8 28 6 -30 c4 -16 3 -32 -2 -34z"/>
<path d="M744 682 c-6 -4 -10 -41 -10 -82 l1 -75 48 -3 c40 -3 47 0 47 16 0
14 -7 18 -30 16 l-30 -2 0 63 c0 63 -7 80 -26 67z"/>
<path d="M928 679 c-48 -18 -45 -61 6 -89 37 -19 35 -44 -3 -37 -20 4 -31 2
-34 -7 -8 -20 2 -26 38 -26 33 0 65 25 65 52 0 17 -31 48 -48 48 -18 0 -26 22
-11 31 8 5 22 6 32 3 22 -7 23 21 1 30 -9 3 -16 6 -17 5 -1 0 -14 -5 -29 -10z"/>
<path d="M1024 681 c-2 -2 -4 -40 -4 -82 l0 -79 50 1 c41 1 50 5 48 18 -2 11
-12 15 -31 13 -21 -3 -27 1 -27 17 0 14 8 21 27 23 39 4 42 28 4 28 -21 0 -31
5 -31 15 0 13 25 21 53 16 4 0 7 6 7 14 0 8 -6 15 -12 16 -59 3 -80 3 -84 0z"/>
<path d="M1153 681 c-5 -3 -10 -41 -10 -84 -1 -68 1 -78 15 -75 11 2 18 15 20
36 4 42 19 41 38 -3 17 -42 47 -49 40 -9 -3 14 -10 31 -16 39 -7 9 -6 16 5 25
32 27 6 69 -46 74 -20 2 -41 1 -46 -3z m62 -46 c0 -28 -29 -25 -33 3 -3 19 0
23 15 20 10 -2 18 -12 18 -23z"/>
<path d="M1281 681 c-22 -14 27 -155 55 -159 17 -2 24 9 47 75 19 58 23 79 14
85 -17 10 -24 0 -46 -67 -13 -40 -19 -52 -20 -35 -1 25 -23 95 -32 104 -2 3
-11 1 -18 -3z"/>
<path d="M1434 682 c-6 -4 -11 -42 -11 -84 -1 -70 1 -78 18 -78 17 0 19 8 19
79 0 78 -6 97 -26 83z"/>
<path d="M1540 682 c-91 -29 -71 -162 25 -162 24 0 35 4 35 15 0 8 -9 15 -21
15 -36 0 -59 19 -59 48 0 39 13 54 49 56 29 1 54 25 28 27 -7 0 -19 2 -27 3
-8 2 -22 1 -30 -2z"/>
<path d="M1632 680 c-5 -3 -8 -40 -9 -82 l-1 -77 37 0 c20 1 44 3 54 6 30 8
18 23 -18 23 -28 0 -35 4 -35 20 0 16 7 20 30 20 20 0 30 5 30 15 0 10 -10 15
-30 15 -20 0 -30 5 -30 15 0 13 25 21 53 16 4 0 7 5 7 13 0 14 -73 27 -88 16z"/>
<path d="M1769 676 c-43 -21 -33 -67 18 -87 37 -14 30 -41 -9 -37 -24 2 -33
-1 -33 -12 0 -23 62 -26 86 -4 29 26 23 52 -16 76 -39 22 -41 43 -5 43 21 0
43 24 23 26 -4 0 -15 2 -24 4 -9 1 -27 -2 -40 -9z"/>
<path d="M171 601 l-1 -79 50 0 c41 -1 50 2 50 17 0 14 -6 17 -30 13 l-30 -4
0 66 c0 58 -2 66 -19 66 -17 0 -19 -8 -20 -79z"/>
</g>
</svg>
