<svg width="24" height="24" viewBox="0 0 24 24" fill="none" xmlns="http://www.w3.org/2000/svg">
<g clip-path="url(#clip0)">
<path d="M13.8398 10.7794C14.3876 11.2945 14.8647 11.8836 15.2686 12.5459C16.2895 11.9062 17.4954 11.5357 18.7864 11.5357C19.3333 11.5357 19.8647 11.6026 20.3734 11.7277C19.5554 10.657 18.5701 9.86431 17.324 9.27734C16.3896 10.1298 15.1768 10.6818 13.8398 10.7794Z" fill="#0084A3"/>
<path d="M12.1418 18.1792C12.1418 16.3246 12.9059 14.6452 14.1355 13.4387C13.4428 12.2381 12.4975 11.3337 11.2695 10.6973C10.2576 11.3939 9.03277 11.8023 7.71415 11.8023C6.39935 11.8023 5.17777 11.3962 4.16761 10.7033C1.60909 12.087 0 14.9667 0 18.2918V23.3928H14.6716C13.1316 22.1748 12.1418 20.2905 12.1418 18.1792Z" fill="#0084A3"/>
<path d="M13.9995 5.51804C13.9995 6.86442 13.5738 8.11315 12.8502 9.13704L12.8867 9.33292C13.0607 9.35372 13.2365 9.36417 13.4126 9.36417C15.8263 9.36417 17.79 7.40048 17.79 4.98679C17.79 2.57306 15.8263 0.609375 13.4126 0.609375C12.9038 0.609375 12.4056 0.696675 11.9355 0.865027C13.2027 2.01582 13.9995 3.67562 13.9995 5.51804Z" fill="#0084A3"/>
<path d="M8.82948 10.2364C11.4381 9.61979 13.053 7.00518 12.4364 4.39655C11.8197 1.78791 9.20511 0.17308 6.59645 0.789722C3.98779 1.40636 2.37293 4.02097 2.98956 6.6296C3.6062 9.23824 6.22082 10.8531 8.82948 10.2364Z" fill="#0084A3"/>
<path d="M23.9994 18.1803C23.9994 15.3056 21.6606 12.9668 18.7858 12.9668C15.9111 12.9668 13.5723 15.3056 13.5723 18.1803C13.5723 21.0551 15.9111 23.3939 18.7858 23.3939C21.6606 23.3939 23.9994 21.0551 23.9994 18.1803ZM15.7491 18.8959V17.4648H18.0702V15.1437H19.5013V17.4648H21.8224V18.8959H19.5013V21.217H18.0702V18.8959H15.7491Z" fill="#0084A3"/>
</g>
<defs>
<clipPath id="clip0">
<rect width="24" height="24" fill="white"/>
</clipPath>
</defs>
</svg>
