<svg width="20" height="20" viewBox="0 0 20 20" fill="none" xmlns="http://www.w3.org/2000/svg">
<path d="M4.92188 8.98438C4.4904 8.98438 4.14062 8.6346 4.14062 8.20312C4.14062 7.77165 4.4904 7.42188 4.92188 7.42188C5.35335 7.42188 5.70312 7.77165 5.70312 8.20312C5.70312 8.6346 5.35335 8.98438 4.92188 8.98438Z" fill="#0084A3"/>
<path d="M3.125 1.5625H4.14062V0.78125C4.14062 0.349766 4.49039 0 4.92188 0C5.35336 0 5.70312 0.349766 5.70312 0.78125V1.5625H9.25781V0.78125C9.25781 0.349766 9.60758 0 10.0391 0C10.4705 0 10.8203 0.349766 10.8203 0.78125V1.5625H14.3359V0.78125C14.3359 0.349766 14.6857 0 15.1172 0C15.5487 0 15.8984 0.349766 15.8984 0.78125V1.5625H16.875C18.5981 1.5625 20 2.96438 20 4.6875V16.875C20 18.5981 18.5981 20 16.875 20H10.8984C10.467 20 10.1172 19.6502 10.1172 19.2188C10.1172 18.7873 10.467 18.4375 10.8984 18.4375H16.875C17.7366 18.4375 18.4375 17.7366 18.4375 16.875V4.6875C18.4375 3.82594 17.7366 3.125 16.875 3.125H15.8984V3.90625C15.8984 4.33773 15.5487 4.6875 15.1172 4.6875C14.6857 4.6875 14.3359 4.33773 14.3359 3.90625V3.125H10.8203V3.90625C10.8203 4.33773 10.4705 4.6875 10.0391 4.6875C9.60758 4.6875 9.25781 4.33773 9.25781 3.90625V3.125H5.70312V3.90625C5.70312 4.33773 5.35336 4.6875 4.92188 4.6875C4.49039 4.6875 4.14062 4.33773 4.14062 3.90625V3.125H3.125C2.26344 3.125 1.5625 3.82594 1.5625 4.6875V9.14062C1.5625 9.57211 1.21273 9.92188 0.78125 9.92188C0.349766 9.92188 0 9.57211 0 9.14062V4.6875C0 2.96438 1.40187 1.5625 3.125 1.5625Z" fill="#0084A3"/>
<path d="M4.72656 10.5469C7.33281 10.5469 9.45312 12.6672 9.45312 15.2734C9.45312 17.8797 7.33281 20 4.72656 20C2.12031 20 0 17.8797 0 15.2734C0 12.6672 2.12031 10.5469 4.72656 10.5469ZM4.72656 18.4375C6.47121 18.4375 7.89062 17.0181 7.89062 15.2734C7.89062 13.5287 6.47121 12.1094 4.72656 12.1094C2.98191 12.1094 1.5625 13.5287 1.5625 15.2734C1.5625 17.0181 2.98191 18.4375 4.72656 18.4375Z" fill="#0084A3"/>
<path d="M3.59375 14.4922H3.94531V13.6719C3.94531 13.2404 4.29508 12.8906 4.72656 12.8906C5.15805 12.8906 5.50781 13.2404 5.50781 13.6719V15.2734C5.50781 15.7049 5.15805 16.0547 4.72656 16.0547H3.59375C3.16227 16.0547 2.8125 15.7049 2.8125 15.2734C2.8125 14.842 3.16227 14.4922 3.59375 14.4922Z" fill="#0084A3"/>
<path d="M8.32031 8.98438C7.88884 8.98438 7.53906 8.6346 7.53906 8.20312C7.53906 7.77165 7.88884 7.42188 8.32031 7.42188C8.75178 7.42188 9.10156 7.77165 9.10156 8.20312C9.10156 8.6346 8.75178 8.98438 8.32031 8.98438Z" fill="#0084A3"/>
<path d="M11.7188 12.3828C11.2873 12.3828 10.9375 12.033 10.9375 11.6016C10.9375 11.1701 11.2873 10.8203 11.7188 10.8203C12.1502 10.8203 12.5 11.1701 12.5 11.6016C12.5 12.033 12.1502 12.3828 11.7188 12.3828Z" fill="#0084A3"/>
<path d="M15.1172 8.98438C14.6857 8.98438 14.3359 8.6346 14.3359 8.20312C14.3359 7.77165 14.6857 7.42188 15.1172 7.42188C15.5487 7.42188 15.8984 7.77165 15.8984 8.20312C15.8984 8.6346 15.5487 8.98438 15.1172 8.98438Z" fill="#0084A3"/>
<path d="M15.1172 12.3828C14.6857 12.3828 14.3359 12.033 14.3359 11.6016C14.3359 11.1701 14.6857 10.8203 15.1172 10.8203C15.5487 10.8203 15.8984 11.1701 15.8984 11.6016C15.8984 12.033 15.5487 12.3828 15.1172 12.3828Z" fill="#0084A3"/>
<path d="M15.1172 15.7812C14.6857 15.7812 14.3359 15.4315 14.3359 15C14.3359 14.5685 14.6857 14.2188 15.1172 14.2188C15.5487 14.2188 15.8984 14.5685 15.8984 15C15.8984 15.4315 15.5487 15.7812 15.1172 15.7812Z" fill="#0084A3"/>
<path d="M11.7188 15.7812C11.2873 15.7812 10.9375 15.4315 10.9375 15C10.9375 14.5685 11.2873 14.2188 11.7188 14.2188C12.1502 14.2188 12.5 14.5685 12.5 15C12.5 15.4315 12.1502 15.7812 11.7188 15.7812Z" fill="#0084A3"/>
<path d="M11.7188 8.98438C11.2873 8.98438 10.9375 8.6346 10.9375 8.20312C10.9375 7.77165 11.2873 7.42188 11.7188 7.42188C12.1502 7.42188 12.5 7.77165 12.5 8.20312C12.5 8.6346 12.1502 8.98438 11.7188 8.98438Z" fill="#0084A3"/>
</svg>
