<svg width="24" height="24" viewBox="0 0 24 24" fill="none" xmlns="http://www.w3.org/2000/svg">
<circle cx="12" cy="12" r="12" fill="#00C2F0"/>
<path d="M16.1611 12.3696C16.1611 11.5854 15.9286 10.8187 15.4928 10.1666C15.0571 9.51451 14.4378 9.00627 13.7133 8.70614C12.9887 8.40601 12.1914 8.32749 11.4222 8.48049C10.653 8.63349 9.94645 9.01115 9.39189 9.56572C8.83733 10.1203 8.45967 10.8268 8.30666 11.596C8.15366 12.3652 8.23219 13.1625 8.53231 13.8871C8.83244 14.6117 9.34068 15.231 9.99278 15.6667C10.6449 16.1024 11.4115 16.335 12.1958 16.335C13.2471 16.3338 14.255 15.9156 14.9984 15.1722C15.7418 14.4288 16.1599 13.4209 16.1611 12.3696ZM9.14363 12.8102H9.55225C9.6691 12.8102 9.78116 12.7638 9.86379 12.6812C9.94642 12.5985 9.99284 12.4865 9.99284 12.3696C9.99284 12.2528 9.94642 12.1407 9.86379 12.0581C9.78116 11.9755 9.6691 11.929 9.55225 11.929H9.14363C9.23975 11.2706 9.54584 10.6607 10.0164 10.1902C10.4869 9.71967 11.0968 9.41358 11.7552 9.31746V9.72607C11.7552 9.84293 11.8016 9.95499 11.8843 10.0376C11.9669 10.1202 12.0789 10.1667 12.1958 10.1667C12.3126 10.1667 12.4247 10.1202 12.5073 10.0376C12.59 9.95499 12.6364 9.84293 12.6364 9.72607V9.31746C13.2948 9.41358 13.9047 9.71967 14.3752 10.1902C14.8457 10.6607 15.1518 11.2706 15.248 11.929H14.8393C14.7225 11.929 14.6104 11.9755 14.5278 12.0581C14.4452 12.1407 14.3988 12.2528 14.3988 12.3696C14.3988 12.4865 14.4452 12.5985 14.5278 12.6812C14.6104 12.7638 14.7225 12.8102 14.8393 12.8102H15.248C15.1518 13.4687 14.8457 14.0785 14.3752 14.549C13.9047 15.0196 13.2948 15.3257 12.6364 15.4218V15.0132C12.6364 14.8963 12.59 14.7843 12.5073 14.7016C12.4247 14.619 12.3126 14.5726 12.1958 14.5726C12.0789 14.5726 11.9669 14.619 11.8843 14.7016C11.8016 14.7843 11.7552 14.8963 11.7552 15.0132V15.4218C11.0968 15.3257 10.4869 15.0196 10.0164 14.549C9.54584 14.0785 9.23975 13.4687 9.14363 12.8102Z" fill="white"/>
<path d="M11.9985 12.7629C12.0812 12.8043 12.1749 12.8185 12.2661 12.8037C12.3574 12.7889 12.4417 12.7458 12.5071 12.6804L13.682 11.5054C13.7635 11.4226 13.809 11.3109 13.8085 11.1947C13.8081 11.0784 13.7617 10.9671 13.6795 10.8849C13.5973 10.8027 13.486 10.7563 13.3698 10.7559C13.2535 10.7554 13.1418 10.8009 13.059 10.8824L12.1086 11.8328L11.2177 11.3873C11.1132 11.3351 10.9922 11.3265 10.8814 11.3634C10.7705 11.4004 10.6789 11.4798 10.6266 11.5844C10.5743 11.6889 10.5657 11.8099 10.6027 11.9207C10.6396 12.0316 10.7191 12.1232 10.8236 12.1755L11.9985 12.7629Z" fill="white"/>
<path d="M5.44059 12.8093C5.55744 12.8093 5.66951 12.7629 5.75214 12.6803C5.83476 12.5976 5.88118 12.4856 5.88118 12.3687C5.88118 9.05325 8.44928 6.32654 11.7007 6.07294L11.2973 6.47634C11.2559 6.51713 11.2229 6.56573 11.2003 6.61932C11.1777 6.67292 11.166 6.73046 11.1658 6.78862C11.1655 6.84678 11.1768 6.90441 11.1989 6.95819C11.2211 7.01197 11.2537 7.06083 11.2948 7.10196C11.3359 7.14309 11.3848 7.17566 11.4386 7.19781C11.4923 7.21996 11.55 7.23124 11.6081 7.231C11.6663 7.23077 11.7238 7.21902 11.7774 7.19643C11.831 7.17385 11.8796 7.14087 11.9204 7.09941L13.0953 5.9245C13.1779 5.84187 13.2244 5.72981 13.2244 5.61297C13.2244 5.49612 13.1779 5.38406 13.0953 5.30143L11.9204 4.12652C11.8376 4.045 11.7258 3.99953 11.6096 4C11.4934 4.00048 11.3821 4.04686 11.2999 4.12905C11.2177 4.21123 11.1713 4.32257 11.1708 4.4388C11.1704 4.55503 11.2158 4.66674 11.2973 4.74959L11.7353 5.18757C7.98134 5.42612 5 8.55553 5 12.3687C5 12.4856 5.04642 12.5976 5.12905 12.6803C5.21167 12.7629 5.32374 12.8093 5.44059 12.8093Z" fill="white"/>
<path d="M18.9517 11.9277C18.8348 11.9277 18.7228 11.9742 18.6402 12.0568C18.5575 12.1394 18.5111 12.2515 18.5111 12.3683C18.5111 15.6838 15.943 18.4105 12.6916 18.6641L13.095 18.2607C13.1765 18.1778 13.222 18.0661 13.2215 17.9499C13.221 17.8337 13.1746 17.7223 13.0925 17.6401C13.0103 17.558 12.8989 17.5116 12.7827 17.5111C12.6665 17.5106 12.5548 17.5561 12.4719 17.6376L11.297 18.8125C11.2144 18.8952 11.168 19.0072 11.168 19.1241C11.168 19.2409 11.2144 19.353 11.297 19.4356L12.4719 20.6105C12.5548 20.692 12.6665 20.7375 12.7827 20.737C12.8989 20.7366 13.0103 20.6902 13.0925 20.608C13.1746 20.5258 13.221 20.4145 13.2215 20.2982C13.222 20.182 13.1765 20.0703 13.095 19.9874L12.657 19.5495C16.411 19.3109 19.3923 16.1815 19.3923 12.3683C19.3923 12.2515 19.3459 12.1394 19.2632 12.0568C19.1806 11.9742 19.0686 11.9277 18.9517 11.9277Z" fill="white"/>
</svg>
