<svg width="22" height="22" viewBox="0 0 22 22" fill="none" xmlns="http://www.w3.org/2000/svg">
<path d="M10.9999 0C4.93455 0 0 4.93444 0 10.9997C0 17.0653 4.93455 22 10.9999 22C17.0651 22 21.9996 17.0652 21.9996 10.9997C21.9996 4.93444 17.0651 0 10.9999 0ZM10.9999 20.4232C5.80401 20.4232 1.57684 16.1958 1.57684 10.9997C1.57684 5.80391 5.80401 1.57683 10.9999 1.57683C16.1957 1.57683 20.4227 5.80391 20.4227 10.9997C20.4227 16.1958 16.1957 20.4232 10.9999 20.4232Z" fill="#00C2F0"/>
<path d="M16.6563 10.8139H11.487V5.16342C11.487 4.728 11.1341 4.375 10.6986 4.375C10.2632 4.375 9.91016 4.728 9.91016 5.16342V11.6024C9.91016 12.0378 10.2632 12.3908 10.6986 12.3908H16.6563C17.0918 12.3908 17.4447 12.0378 17.4447 11.6024C17.4447 11.1669 17.0917 10.8139 16.6563 10.8139Z" fill="#00C2F0"/>
</svg>
