<svg width="24" height="24" viewBox="0 0 24 24" fill="none" xmlns="http://www.w3.org/2000/svg">
<g clip-path="url(#clip0)">
<path d="M3.05297 22.9593H6.32107C6.36649 23.244 6.60246 23.4667 6.90046 23.4667H14.3307C14.6298 23.4667 14.8646 23.2451 14.9101 22.9593H18.1782C18.731 22.9593 19.1785 22.5118 19.1785 21.959H2.05371C2.05371 22.5118 2.50127 22.9593 3.05297 22.9593Z" fill="#0084A3"/>
<path d="M23.1148 12.6781C22.2818 12.0035 21.1086 11.9924 20.3364 12.0777C20.3586 11.5393 20.3708 10.9887 20.3708 10.416H0C0 15.9217 0.833088 19.8942 6.10524 21.3764H14.2655C16.3538 20.7904 17.7386 19.8055 18.6569 18.4961C20.6577 18.4574 23.8759 17.6697 23.9967 14.9069C24.0487 13.6973 23.5458 13.0259 23.1148 12.6781ZM19.4956 16.9165C19.8789 15.9316 20.106 14.8239 20.2312 13.6064C20.7718 13.5178 21.7035 13.4613 22.1743 13.8446C22.2607 13.9155 22.5299 14.1348 22.4989 14.8427C22.4357 16.2739 20.6588 16.7547 19.4956 16.9165Z" fill="#0084A3"/>
<path d="M8.29883 9.64246C8.29883 9.64246 12.1762 9.35776 10.3993 6.08871C8.97239 3.46438 9.29809 1.92457 11.1238 0.533203C11.1238 0.533203 5.14373 2.0564 8.63118 6.76999C9.91072 8.82381 8.29883 9.64246 8.29883 9.64246Z" fill="#0084A3"/>
<path d="M10.9121 9.38155C10.9121 9.38155 14.0185 8.72685 12.3279 6.22881C11.7142 5.1454 12.5606 4.75879 12.5606 4.75879C12.5606 4.75879 10.5609 4.82193 11.4051 6.54009C12.0809 7.92149 11.8804 8.7058 10.9121 9.38155Z" fill="#0084A3"/>
</g>
<defs>
<clipPath id="clip0">
<rect width="24" height="24" fill="white"/>
</clipPath>
</defs>
</svg>
