<svg width="20" height="20" viewBox="0 0 20 20" fill="none" xmlns="http://www.w3.org/2000/svg">
<path d="M10 20C4.48578 20 0 15.5142 0 10C0 4.48578 4.48578 0 10 0C15.5142 0 20 4.48578 20 10C20 15.5142 15.5142 20 10 20ZM13.6826 7.49588C14.0083 7.16995 14.0083 6.64337 13.6826 6.31744C13.5201 6.15494 13.3067 6.0733 13.0933 6.0733C12.8799 6.0733 12.6666 6.15494 12.5041 6.31744L10 8.82172L7.49588 6.31744C7.33337 6.15494 7.12006 6.0733 6.90674 6.0733C6.69327 6.0733 6.47995 6.15494 6.31744 6.31744C5.99167 6.64337 5.99167 7.16995 6.31744 7.49588L8.82172 10L6.31744 12.5041C5.99167 12.83 5.99167 13.3566 6.31744 13.6826C6.64337 14.0083 7.16995 14.0083 7.49588 13.6826L10 11.1783L12.5041 13.6826C12.83 14.0083 13.3566 14.0083 13.6826 13.6826C14.0083 13.3566 14.0083 12.83 13.6826 12.5041L11.1783 10L13.6826 7.49588Z" fill="#0084A3"/>
</svg>
