<svg width="24" height="24" viewBox="0 0 24 24" fill="none" xmlns="http://www.w3.org/2000/svg">
<circle cx="12" cy="12" r="12" fill="#00C2F0"/>
<path d="M11.5 19C7.91576 19 5 16.0842 5 12.5C5 8.91576 7.91576 6 11.5 6C15.0842 6 18 8.91576 18 12.5C18 16.0842 15.0842 19 11.5 19ZM11.5 6.8125C8.36376 6.8125 5.8125 9.36376 5.8125 12.5C5.8125 15.6362 8.36376 18.1875 11.5 18.1875C14.6362 18.1875 17.1875 15.6362 17.1875 12.5C17.1875 9.36376 14.6362 6.8125 11.5 6.8125Z" fill="white"/>
<path d="M14.3438 16.0202C14.2397 16.0202 14.1358 15.9807 14.0566 15.901L11.2129 13.0573C11.1365 12.9809 11.0938 12.8775 11.0938 12.7702V8.97852C11.0938 8.75426 11.2757 8.57227 11.5 8.57227C11.7243 8.57227 11.9062 8.75426 11.9062 8.97852V12.6017L14.6309 15.3264C14.7896 15.4851 14.7896 15.7423 14.6309 15.901C14.5517 15.9807 14.4478 16.0202 14.3438 16.0202Z" fill="white"/>
</svg>
