<svg width="51" height="51" viewBox="0 0 51 51" fill="none" xmlns="http://www.w3.org/2000/svg">
<circle cx="25.5" cy="25.5" r="25.5" fill="#F2F2F2"/>
<path d="M36.0584 33.738C35.4564 32.3116 34.5827 31.0159 33.4861 29.9231C32.3928 28.8272 31.0977 27.9534 29.6723 27.35C29.6595 27.3436 29.6468 27.3404 29.634 27.334C31.6223 25.8974 32.9148 23.5574 32.9148 20.9172C32.9148 16.5436 29.3723 13 25 13C20.6277 13 17.0852 16.5436 17.0852 20.9172C17.0852 23.5574 18.3777 25.8974 20.366 27.3372C20.3532 27.3436 20.3405 27.3468 20.3277 27.3532C18.8979 27.9565 17.6149 28.8217 16.5139 29.9263C15.4183 31.0199 14.5448 32.3154 13.9416 33.7412C13.349 35.1371 13.0294 36.6337 13.0001 38.15C12.9992 38.1841 13.0052 38.218 13.0177 38.2497C13.0301 38.2814 13.0488 38.3103 13.0726 38.3347C13.0964 38.3591 13.1248 38.3785 13.1562 38.3917C13.1876 38.405 13.2213 38.4118 13.2554 38.4118H15.1703C15.3107 38.4118 15.4224 38.3 15.4256 38.1628C15.4894 35.6982 16.4788 33.3901 18.2277 31.6406C20.0373 29.8305 22.4404 28.8345 25 28.8345C27.5596 28.8345 29.9627 29.8305 31.7723 31.6406C33.5212 33.3901 34.5106 35.6982 34.5744 38.1628C34.5776 38.3032 34.6893 38.4118 34.8297 38.4118H36.7446C36.7787 38.4118 36.8124 38.405 36.8438 38.3917C36.8752 38.3785 36.9036 38.3591 36.9274 38.3347C36.9512 38.3103 36.9699 38.2814 36.9823 38.2497C36.9948 38.218 37.0008 38.1841 36.9999 38.15C36.968 36.624 36.6521 35.1395 36.0584 33.738V33.738ZM25 26.4082C23.5351 26.4082 22.1564 25.8368 21.1192 24.7992C20.0819 23.7617 19.5107 22.3826 19.5107 20.9172C19.5107 19.4519 20.0819 18.0728 21.1192 17.0352C22.1564 15.9977 23.5351 15.4262 25 15.4262C26.4649 15.4262 27.8436 15.9977 28.8808 17.0352C29.9181 18.0728 30.4893 19.4519 30.4893 20.9172C30.4893 22.3826 29.9181 23.7617 28.8808 24.7992C27.8436 25.8368 26.4649 26.4082 25 26.4082Z" fill="#686868"/>
</svg>
