<svg width="21" height="21" viewBox="0 0 21 21" fill="none" xmlns="http://www.w3.org/2000/svg">
<g clip-path="url(#clip0)">
<path d="M10.5 4.24121C6.48773 4.24121 2.84919 6.43636 0.164314 10.0019C-0.0547714 10.294 -0.0547714 10.7021 0.164314 10.9942C2.84919 14.564 6.48773 16.7592 10.5 16.7592C14.5123 16.7592 18.1508 14.564 20.8357 10.9985C21.0548 10.7064 21.0548 10.2983 20.8357 10.0062C18.1508 6.43636 14.5123 4.24121 10.5 4.24121ZM10.7878 14.9077C8.12442 15.0752 5.92498 12.8801 6.09251 10.2124C6.22998 8.01292 8.01273 6.23016 10.2122 6.0927C12.8756 5.92516 15.075 8.12031 14.9075 10.788C14.7657 12.9832 12.983 14.7659 10.7878 14.9077ZM10.6546 12.8715C9.21985 12.9617 8.03421 11.7803 8.12872 10.3455C8.20175 9.1599 9.16401 8.20193 10.3496 8.12461C11.7844 8.0344 12.9701 9.21574 12.8756 10.6505C12.7983 11.8405 11.836 12.7984 10.6546 12.8715Z" fill="#00C2F0"/>
</g>
<defs>
<clipPath id="clip0">
<rect width="21" height="21" fill="white"/>
</clipPath>
</defs>
</svg>
