<svg width="15" height="22" viewBox="0 0 15 22" fill="none" xmlns="http://www.w3.org/2000/svg">
<path d="M4.69854 14.2755C4.67911 14.2649 4.65438 14.2507 4.63318 14.2347C4.37 14.0257 4.08031 13.79 3.83125 13.5863C3.46738 13.2868 3.04875 12.9413 2.75553 12.6968C2.55594 12.532 2.32807 12.4169 2.11434 12.3726C1.9748 12.3478 1.85115 12.3478 1.75047 12.3867C1.67098 12.4222 1.60033 12.486 1.55617 12.587C1.49611 12.7216 1.46609 12.9112 1.48198 13.1717C1.49611 13.402 1.57737 13.6518 1.68158 13.8963C1.83526 14.2507 2.05075 14.5803 2.20973 14.7893C2.22033 14.8035 2.22916 14.8141 2.23446 14.8301L5.38566 19.3447C5.42628 19.4049 5.45101 19.4705 5.45455 19.5342C5.5199 20.0534 5.62942 20.4485 5.78839 20.693C5.9085 20.872 6.05688 20.9623 6.25118 20.957H11.2094C11.5185 20.9517 11.7976 20.8631 12.0555 20.6824C12.3399 20.4875 12.5924 20.1827 12.8274 19.7734C12.8327 19.7681 12.838 19.7593 12.8415 19.754C12.9316 19.5998 13.0499 19.3996 13.1647 19.21C13.6682 18.3808 14.1062 17.6561 14.1557 16.6285L14.1256 15.211C14.1203 15.1915 14.1203 15.1703 14.1203 15.1508C14.1203 15.1313 14.1203 14.9966 14.1256 14.8159C14.1362 13.8768 14.1504 12.7181 13.2937 12.5746H12.7408C12.7355 12.8386 12.7214 13.1096 12.7055 13.3683C12.6914 13.6022 12.6755 13.8219 12.6755 14.0381C12.6755 14.2684 12.4918 14.4527 12.2621 14.4527C12.0325 14.4527 11.8488 14.2684 11.8488 14.0381C11.8488 13.8237 11.8629 13.5739 11.8788 13.3134C11.9336 12.4293 11.9989 11.4158 11.2959 11.2918H10.7484C10.7183 11.2918 10.6883 11.2865 10.6583 11.2811C10.6636 11.6001 10.6441 11.9296 10.6229 12.2503C10.6123 12.4842 10.5982 12.7039 10.5982 12.9183C10.5982 13.1486 10.4145 13.3329 10.1849 13.3329C9.95525 13.3329 9.77155 13.1486 9.77155 12.9183C9.77155 12.7039 9.78568 12.4541 9.80158 12.1936C9.85634 11.3095 9.92169 10.296 9.21868 10.172H8.6711C8.63048 10.172 8.59692 10.1667 8.56159 10.1578V11.7702C8.56159 12.0005 8.37789 12.1848 8.14826 12.1848C7.91863 12.1848 7.73493 12.0005 7.73493 11.7702V7.43985C7.73493 6.71517 7.44171 6.25627 7.06371 6.06669C6.92416 5.99582 6.77579 5.96215 6.63095 5.96215C6.4861 5.96215 6.33773 5.99759 6.19819 6.06669C5.82548 6.25627 5.5358 6.71517 5.5358 7.45934V15.0445C5.5358 15.2748 5.3521 15.4591 5.12247 15.4591C4.89284 15.4591 4.70914 15.2748 4.70914 15.0445V14.2755H4.69854ZM6.94006 2.47877C6.94006 2.7534 6.7175 2.97133 6.44901 2.97133C6.17522 2.97133 5.95796 2.74808 5.95796 2.47877V0.492564C5.95796 0.217933 6.18052 0 6.44901 0C6.7228 0 6.94006 0.223249 6.94006 0.492564V2.47877ZM2.47115 6.54685C2.74494 6.54685 2.9622 6.7701 2.9622 7.03942C2.9622 7.31405 2.73964 7.53198 2.47115 7.53198H0.49105C0.217263 7.53021 0 7.30696 0 7.03942C0 6.76478 0.222562 6.54685 0.49105 6.54685H2.47115ZM3.87188 3.6021C4.06265 3.79345 4.06265 4.10706 3.87188 4.29842C3.68111 4.48978 3.36846 4.48978 3.1777 4.29842L1.78227 2.89337C1.5915 2.70202 1.5915 2.3884 1.78227 2.19705C1.97303 2.00569 2.28568 2.00569 2.47645 2.19705L3.87188 3.6021ZM10.328 7.53021C10.0542 7.53021 9.83691 7.30696 9.83691 7.03764C9.83691 6.76301 10.0595 6.54508 10.328 6.54508H12.3081C12.5818 6.54508 12.7991 6.76833 12.7991 7.03764C12.7991 7.31227 12.5765 7.53021 12.3081 7.53021H10.328ZM9.62141 4.19034C9.43064 4.3817 9.11799 4.3817 8.92723 4.19034C8.73646 3.99898 8.73646 3.68537 8.92723 3.49402L10.3227 2.08897C10.5134 1.89761 10.8261 1.89761 11.0168 2.08897C11.2076 2.28032 11.2076 2.59394 11.0168 2.78529L9.62141 4.19034ZM8.56159 9.3534C8.59692 9.34277 8.63048 9.33923 8.6711 9.33923H9.24341C9.27343 9.33923 9.30876 9.34455 9.33702 9.34986C10.0983 9.47034 10.4428 9.91507 10.5823 10.4927C10.6371 10.4679 10.6971 10.4519 10.7572 10.4519H11.3295C11.3595 10.4519 11.3948 10.4572 11.4231 10.4626C12.2445 10.5919 12.573 11.0969 12.6931 11.7365C12.7126 11.7312 12.7338 11.7312 12.7585 11.7312H13.3308C13.3608 11.7312 13.3961 11.7365 13.4262 11.7418C15 11.9863 14.9788 13.5544 14.9647 14.8177V15.1472L15 16.6054V16.6497C14.9399 17.8935 14.4524 18.6979 13.8907 19.6264C13.7953 19.7805 13.7017 19.94 13.5728 20.1615C13.5675 20.1668 13.5675 20.1721 13.5622 20.1756C13.269 20.6895 12.9298 21.0846 12.5412 21.3539C12.1473 21.6285 11.7093 21.7685 11.2323 21.7738H6.27591C5.78309 21.7844 5.39979 21.5683 5.1154 21.1448C4.88578 20.8046 4.7374 20.3262 4.65791 19.7274L1.57207 15.2996L1.55617 15.2854C1.37247 15.0409 1.12341 14.6564 0.934409 14.2312C0.794866 13.9123 0.69065 13.5668 0.665921 13.2266C0.641192 12.8226 0.695949 12.5019 0.810763 12.2485C0.950306 11.9332 1.17993 11.7294 1.45372 11.6196C1.70808 11.515 1.996 11.4991 2.28568 11.5593C2.63366 11.6302 2.99223 11.8038 3.29604 12.059C3.5451 12.268 3.96373 12.6082 4.37176 12.9431L4.7109 13.223V7.46465C4.7109 6.36081 5.19842 5.65209 5.83078 5.33139C6.08514 5.20204 6.35893 5.13649 6.63801 5.13649C6.9171 5.13649 7.19089 5.20204 7.44348 5.33139C8.07584 5.65031 8.57395 6.36435 8.57395 7.4487V9.35518L8.56159 9.3534Z" fill="#0084A3"/>
</svg>
