<svg width="15" height="10" viewBox="0 0 15 10" fill="none" xmlns="http://www.w3.org/2000/svg">
<path fill-rule="evenodd" clip-rule="evenodd" d="M7.5 0.5C4.375 0.5 1.70625 2.44375 0.625 5.1875C1.70625 7.93125 4.375 9.875 7.5 9.875C10.625 9.875 13.2937 7.93125 14.375 5.1875C13.2937 2.44375 10.625 0.5 7.5 0.5ZM7.5 8.3125C5.775 8.3125 4.375 6.9125 4.375 5.1875C4.375 3.4625 5.775 2.0625 7.5 2.0625C9.225 2.0625 10.625 3.4625 10.625 5.1875C10.625 6.9125 9.225 8.3125 7.5 8.3125ZM7.5 3.3125C6.4625 3.3125 5.625 4.15 5.625 5.1875C5.625 6.225 6.4625 7.0625 7.5 7.0625C8.5375 7.0625 9.375 6.225 9.375 5.1875C9.375 4.15 8.5375 3.3125 7.5 3.3125Z" fill="#515151"/>
</svg>
