<svg width="12" height="16" viewBox="0 0 12 16" fill="none" xmlns="http://www.w3.org/2000/svg">
<path fill-rule="evenodd" clip-rule="evenodd" d="M0.857143 13.7143C0.857143 14.6571 1.62857 15.4286 2.57143 15.4286H9.42857C10.3714 15.4286 11.1429 14.6571 11.1429 13.7143V5.14286C11.1429 4.2 10.3714 3.42857 9.42857 3.42857H2.57143C1.62857 3.42857 0.857143 4.2 0.857143 5.14286V13.7143ZM3.57465 7.00286C3.90894 6.66857 4.44894 6.66857 4.78323 7.00286L6.00037 8.22L7.21751 7.00286C7.5518 6.66857 8.0918 6.66857 8.42608 7.00286C8.76037 7.33714 8.76037 7.87714 8.42608 8.21143L7.20894 9.42857L8.42608 10.6457C8.76037 10.98 8.76037 11.52 8.42608 11.8543C8.0918 12.1886 7.5518 12.1886 7.21751 11.8543L6.00037 10.6371L4.78323 11.8543C4.44894 12.1886 3.90894 12.1886 3.57465 11.8543C3.24037 11.52 3.24037 10.98 3.57465 10.6457L4.7918 9.42857L3.57465 8.21143C3.24037 7.88572 3.24037 7.33714 3.57465 7.00286ZM9 0.857143L8.39143 0.248571C8.23714 0.0942857 8.01429 0 7.79143 0H4.20857C3.98571 0 3.76286 0.0942857 3.60857 0.248571L3 0.857143H0.857143C0.385714 0.857143 0 1.24286 0 1.71429C0 2.18571 0.385714 2.57143 0.857143 2.57143H11.1429C11.6143 2.57143 12 2.18571 12 1.71429C12 1.24286 11.6143 0.857143 11.1429 0.857143H9Z" fill="#F02727"/>
</svg>
