<svg width="27" height="27" viewBox="0 0 27 27" fill="none" xmlns="http://www.w3.org/2000/svg">
<g clip-path="url(#clip0)">
<path d="M13.4998 20.8636C9.43144 20.8636 6.13621 17.5684 6.13621 13.5C6.13621 12.2543 6.44916 11.0884 6.98918 10.0575L5.19734 8.26562C4.24617 9.78742 3.68164 11.5731 3.68164 13.5C3.68164 18.9245 8.07526 23.3182 13.4998 23.3182V27L18.4089 22.0909L13.4998 17.1818V20.8636Z" fill="#686868"/>
<path d="M13.4989 3.68182V0L8.58984 4.90908L13.4989 9.81815V6.13633C17.5673 6.13633 20.8626 9.43156 20.8626 13.5C20.8626 14.7456 20.5496 15.9116 20.0096 16.9425L21.8014 18.7343C22.7525 17.2125 23.3171 15.4268 23.3171 13.5C23.3171 8.07544 18.9234 3.68182 13.4989 3.68182Z" fill="#686868"/>
</g>
<defs>
<clipPath id="clip0">
<rect width="27" height="27" fill="white"/>
</clipPath>
</defs>
</svg>
