<svg width="30" height="32" viewBox="0 0 30 32" fill="none" xmlns="http://www.w3.org/2000/svg">
<path d="M27.9419 0H2.05781C0.850968 0 0.141548 1.36015 0.833031 2.34988C0.846343 2.36875 0.423291 1.79264 10.7098 15.7943C10.9405 16.1282 11.0625 16.5189 11.0625 16.9249V30.4194C11.0625 31.7316 12.5667 32.4554 13.5868 31.6835L17.9713 28.3783C18.5763 27.9291 18.9373 27.2115 18.9373 26.4578V16.9249C18.9373 16.5189 19.0591 16.1282 19.2899 15.7943C29.5685 1.80339 29.1534 2.36863 29.1667 2.34988C29.8579 1.36059 29.1493 0 27.9419 0V0ZM17.7717 14.6941C17.3466 15.2726 17.0623 16.0793 17.0623 16.9248V26.4576C17.0623 26.6209 16.9839 26.7765 16.8526 26.8736C16.7372 26.9586 17.6115 26.3015 12.9374 29.8249V16.9249C12.9374 16.1295 12.6966 15.3644 12.2411 14.7123C12.2297 14.6961 12.5472 15.1285 5.79484 5.93741H24.2048L17.7717 14.6941ZM25.5823 4.0624H4.41744L2.81042 1.87495H27.1893L25.5823 4.0624Z" fill="white"/>
</svg>
