<svg width="32" height="32" viewBox="0 0 32 32" fill="none" xmlns="http://www.w3.org/2000/svg">
<path d="M27.3125 8.0625H26.4375V4.6875C26.4375 2.10281 24.3347 0 21.75 0H10.25C7.66531 0 5.5625 2.10281 5.5625 4.6875V8.0625H4.6875C2.10281 8.0625 0 10.1653 0 12.75V20.25C0 22.8347 2.10281 24.9375 4.6875 24.9375H5.5625V29.1875C5.5625 30.7383 6.82419 32 8.375 32H23.625C25.1758 32 26.4375 30.7383 26.4375 29.1875V24.9375H27.3125C29.8972 24.9375 32 22.8347 32 20.25V12.75C32 10.1653 29.8972 8.0625 27.3125 8.0625ZM7.4375 4.6875C7.4375 3.13669 8.69919 1.875 10.25 1.875H21.75C23.3008 1.875 24.5625 3.13669 24.5625 4.6875V8.0625H7.4375V4.6875ZM24.5625 29.1875C24.5625 29.7044 24.1419 30.125 23.625 30.125H8.375C7.85806 30.125 7.4375 29.7044 7.4375 29.1875V19.9375H24.5625V29.1875ZM30.125 20.25C30.125 21.8008 28.8633 23.0625 27.3125 23.0625H26.4375V19.9375H27C27.5177 19.9375 27.9375 19.5177 27.9375 19C27.9375 18.4823 27.5177 18.0625 27 18.0625H5C4.48225 18.0625 4.0625 18.4823 4.0625 19C4.0625 19.5177 4.48225 19.9375 5 19.9375H5.5625V23.0625H4.6875C3.13669 23.0625 1.875 21.8008 1.875 20.25V12.75C1.875 11.1992 3.13669 9.9375 4.6875 9.9375H27.3125C28.8633 9.9375 30.125 11.1992 30.125 12.75V20.25Z" fill="white"/>
</svg>
