<svg width="24" height="24" viewBox="0 0 24 24" fill="none" xmlns="http://www.w3.org/2000/svg">
<path d="M18.3407 24H5.66046C3.70128 24 2.12305 22.4218 2.12305 20.4626V3.56463C2.12305 1.60544 3.70128 0 5.66046 0H18.3407C20.2999 0 21.8781 1.57823 21.8781 3.53742V20.4626C21.8781 22.4218 20.2999 24 18.3407 24ZM9.08903 17.3061H14.9394C15.402 17.3061 15.7557 16.9524 15.7557 16.4898C15.7557 16.0272 15.402 15.6735 14.9394 15.6735H9.08903C8.62645 15.6735 8.27271 16.0272 8.27271 16.4898C8.27271 16.9524 8.62645 17.3061 9.08903 17.3061ZM17.0074 6.69388H6.96658C6.504 6.69388 6.15026 7.04762 6.15026 7.5102C6.15026 7.97279 6.53121 8.32653 6.96658 8.32653H17.0074C17.47 8.32653 17.8237 7.97279 17.8237 7.5102C17.8237 7.04762 17.47 6.69388 17.0074 6.69388ZM17.0074 11.1837H6.96658C6.504 11.1837 6.15026 11.5374 6.15026 12C6.15026 12.4626 6.53121 12.8163 6.96658 12.8163H17.0074C17.47 12.8163 17.8237 12.4626 17.8237 12C17.8237 11.5374 17.47 11.1837 17.0074 11.1837Z" fill="#0084A3"/>
</svg>
