<svg width="20" height="20" viewBox="0 0 20 20" fill="none" xmlns="http://www.w3.org/2000/svg">
<path d="M3.79171 1.61963H4.80111V0.857417C4.80111 0.383977 5.185 0 5.65857 0H5.9702C6.44381 0 6.82762 0.384018 6.82762 0.857417V1.61963H12.8258V0.857417C12.8258 0.383977 13.2097 0 13.6832 0H13.9949C14.4684 0 14.8523 0.384018 14.8523 0.857417V1.61963H16.2076C17.4841 1.61963 18.5225 2.65808 18.5225 3.93451V17.6851C18.5225 18.9615 17.4841 20 16.2076 20H3.79167C2.51524 20 1.47683 18.9615 1.47683 17.6851V3.93451C1.47687 2.65808 2.51528 1.61963 3.79171 1.61963ZM2.87087 17.6851C2.87087 18.1928 3.28398 18.6059 3.79163 18.6059H16.2076C16.7154 18.6059 17.1284 18.1927 17.1284 17.6851V3.93451C17.1284 3.42674 16.7153 3.01367 16.2076 3.01367H14.8523V4.10873C14.8523 4.58222 14.4684 4.96619 13.9949 4.96619H13.6832C13.2096 4.96619 12.8258 4.58218 12.8258 4.10873V3.01363H6.82762V4.10869C6.82762 4.58218 6.44373 4.96615 5.97025 4.96615H5.65857C5.18496 4.96615 4.80115 4.58213 4.80115 4.10869V3.01363H3.79171C3.28398 3.01363 2.87095 3.42674 2.87095 3.93447L2.87087 17.6851Z" fill="#00C2F0"/>
<path d="M5.28166 6.85822H14.4426C14.8276 6.85822 15.1396 7.17027 15.1396 7.55523C15.1396 7.9402 14.8276 8.25225 14.4426 8.25225H5.28166C4.89673 8.25225 4.58464 7.94016 4.58464 7.55523C4.58464 7.17031 4.89673 6.85822 5.28166 6.85822Z" fill="#00C2F0"/>
<path d="M5.33049 9.62299H14.4915C14.8764 9.62299 15.1885 9.93504 15.1885 10.32C15.1885 10.705 14.8764 11.017 14.4915 11.017H5.33049C4.94557 11.017 4.63343 10.705 4.63343 10.32C4.63343 9.93504 4.94557 9.62299 5.33049 9.62299Z" fill="#00C2F0"/>
<path d="M5.37932 12.3878H14.5403C14.9252 12.3878 15.2373 12.6999 15.2373 13.0848C15.2373 13.4698 14.9252 13.7819 14.5403 13.7819H5.37932C4.99439 13.7819 4.6823 13.4698 4.6823 13.0848C4.6823 12.6999 4.99439 12.3878 5.37932 12.3878Z" fill="#00C2F0"/>
<path d="M5.42912 15.1526H14.5901C14.975 15.1526 15.2871 15.4646 15.2871 15.8496C15.2871 16.2346 14.975 16.5466 14.5901 16.5466H5.42912C5.0442 16.5466 4.73207 16.2346 4.73207 15.8496C4.73207 15.4646 5.0442 15.1526 5.42912 15.1526Z" fill="#00C2F0"/>
</svg>
