<svg width="51" height="51" viewBox="0 0 51 51" fill="none" xmlns="http://www.w3.org/2000/svg">
<circle cx="25.5" cy="25.5" r="25.5" fill="#F2F2F2"/>
<g clip-path="url(#clip0)">
<path d="M36.9977 26.0069C36.9977 28.3753 36.2947 30.6787 34.9647 32.668C34.2305 33.6748 32.7567 32.6855 33.4061 31.6259C37.93 25.0197 32.9918 15.816 24.9987 15.883C19.4165 15.8829 14.8748 20.4246 14.8748 26.0069C14.8077 33.8035 23.6107 38.7622 30.236 34.673C30.6788 34.4048 31.2553 34.5463 31.5235 34.9891C31.7917 35.4319 31.6502 36.0083 31.2073 36.2766C26.6287 39.1235 20.2751 38.3717 16.5144 34.4913C8.99052 26.9522 14.3492 14.0182 24.9989 14.0081C31.448 13.8751 37.1313 19.5572 36.9977 26.0069V26.0069ZM24.9988 28.8192C25.5166 28.8192 25.9362 28.3995 25.9362 27.8817V26.9443H30.2015C31.4452 26.8948 31.4443 25.1186 30.2015 25.0695H25.9362V18.5077C25.8867 17.2639 24.1105 17.2648 24.0614 18.5077V25.0695H23.124C21.8803 25.119 21.8812 26.8953 23.124 26.9443H24.0614V27.8817C24.0614 28.3995 24.4811 28.8192 24.9988 28.8192Z" fill="#686868"/>
</g>
<defs>
<clipPath id="clip0">
<rect width="24" height="24" fill="white" transform="translate(13 14)"/>
</clipPath>
</defs>
</svg>
