<svg width="26" height="26" viewBox="0 0 26 26" fill="none" xmlns="http://www.w3.org/2000/svg">
<g clip-path="url(#clip0)">
<path d="M25.4747 3.11961C25.426 2.99653 25.314 2.90992 25.1826 2.89385C25.0516 2.87784 24.9217 2.9349 24.8448 3.04263C24.3885 3.68236 23.7898 3.89561 23.0962 4.14255C22.5369 4.34177 21.9586 4.54762 21.3336 4.99637C20.4496 5.63099 20.0452 6.49606 20.2469 7.31599L20.2253 7.34362C19.8562 6.80813 19.4546 6.31285 19.0307 5.87059C17.0477 3.80147 14.2769 2.55752 11.4284 2.45779C11.3029 2.4534 11.1754 2.45117 11.0494 2.45117C7.8687 2.45117 4.8243 3.87304 2.69686 6.35209C0.580558 8.81832 -0.357461 12.0288 0.123435 15.1603C0.16364 15.422 0.213957 15.6865 0.273121 15.9465C1.05532 19.3893 3.05311 22.0084 5.75432 23.1318C6.42017 23.4088 7.0918 23.5492 7.75031 23.5492C9.38638 23.5492 10.8154 22.6741 11.6711 21.1484C11.9963 20.5678 12.2062 19.9674 12.2946 19.3637C12.3468 19.0074 12.3111 18.6514 12.2766 18.3064C12.241 17.9513 12.2074 17.6157 12.2612 17.2778C12.3844 16.5033 12.9254 16.0408 13.7085 16.0408C13.9312 16.0408 14.1589 16.0775 14.3862 16.1499C14.12 16.638 13.8783 17.1041 13.6671 17.5361C13.2195 18.4517 12.9108 19.2099 12.7492 19.7895C12.6496 20.147 12.3849 21.0969 13.0302 21.5448C13.2352 21.687 13.495 21.7372 13.7654 21.6869C14.0091 21.6416 14.7506 21.5039 16.8577 19.1051C17.4232 18.4614 18.0326 17.7165 18.6696 16.8906C20.3048 16.3399 21.5773 14.9693 21.9139 13.3945C21.9981 13.0008 22.0333 12.5795 22.0183 12.1419C22.6305 11.1957 23.1675 10.3129 23.7079 9.36386C23.7182 9.34557 23.7285 9.32606 23.7386 9.30608C24.5229 9.09127 25.1984 8.48091 25.5949 7.6274C26.1738 6.3817 26.1311 4.78072 25.4747 3.11961ZM16.6349 9.01827C16.3512 9.46877 15.8636 9.73775 15.3304 9.73775C15.0409 9.73775 14.7577 9.65583 14.5116 9.50079C14.1636 9.28159 13.9216 8.94002 13.8305 8.539C13.7394 8.13797 13.8097 7.72538 14.029 7.37732C14.3127 6.92682 14.8003 6.65784 15.3335 6.65784C15.6231 6.65784 15.9062 6.73976 16.1523 6.89486C16.5003 7.11394 16.7423 7.4555 16.8334 7.85659C16.9245 8.25768 16.854 8.6702 16.6349 9.01827ZM18.6335 11.8081C19.412 10.6611 20.2352 9.52101 21.0171 8.50686C21.1439 8.62133 21.2856 8.73316 21.4392 8.83969C21.6936 9.01622 21.9597 9.15273 22.2315 9.2462C21.5713 10.3752 20.8614 11.4937 20.002 12.7596C18.5898 14.8404 17.1215 16.7732 15.8674 18.202C15.1669 19.0001 14.5539 19.6163 14.0816 19.9979C14.2639 19.4147 14.6123 18.6143 15.0972 17.6659C15.9644 15.97 17.2202 13.8897 18.6335 11.8081ZM4.9658 11.7983C4.67624 11.7983 4.39306 11.7163 4.14683 11.5612C3.79883 11.3421 3.55694 11.0007 3.46582 10.5995C3.37469 10.1984 3.44523 9.78584 3.66449 9.43777C3.94804 8.98733 4.43567 8.71835 4.96881 8.71835C5.25843 8.71835 5.54162 8.80027 5.78778 8.95537C6.50618 9.40786 6.72261 10.3604 6.27042 11.0787C5.98658 11.5293 5.49888 11.7983 4.9658 11.7983ZM3.3517 15.1889C3.63536 14.7383 4.12294 14.4694 4.65614 14.4694C4.94564 14.4694 5.22876 14.5513 5.47505 14.7064C5.82305 14.9255 6.06494 15.267 6.15607 15.6681C6.24725 16.0691 6.17671 16.4816 5.95739 16.8298C5.67385 17.2802 5.18621 17.5492 4.65307 17.5492C4.36351 17.5492 4.08027 17.4673 3.83398 17.3122C3.48598 17.093 3.24415 16.7516 3.15308 16.3505C3.06208 15.9495 3.13268 15.5369 3.3517 15.1889ZM8.28296 6.04381C8.56663 5.59331 9.05427 5.32433 9.5874 5.32433C9.87684 5.32433 10.16 5.40625 10.4062 5.56129C11.1246 6.01366 11.3411 6.9663 10.8888 7.6847C10.6051 8.13526 10.1174 8.40424 9.58427 8.40424C9.29477 8.40424 9.01159 8.32232 8.76543 8.16722C8.41748 7.94814 8.17565 7.60663 8.08453 7.20549C7.99328 6.80446 8.06382 6.39193 8.28296 6.04381Z" fill="#0084A3"/>
</g>
<defs>
<clipPath id="clip0">
<rect width="26" height="26" fill="white"/>
</clipPath>
</defs>
</svg>
