<svg width="896" height="896" viewBox="0 0 896 896" fill="none" xmlns="http://www.w3.org/2000/svg">
<path d="M448 0C200.6 0 0 200.6 0 448C0 695.4 200.6 896 448 896C695.4 896 896 695.4 896 448C896 200.6 695.4 0 448 0ZM640 472C640 476.4 636.4 480 632 480H480V632C480 636.4 476.4 640 472 640H424C419.6 640 416 636.4 416 632V480H264C259.6 480 256 476.4 256 472V424C256 419.6 259.6 416 264 416H416V264C416 259.6 419.6 256 424 256H472C476.4 256 480 259.6 480 264V416H632C636.4 416 640 419.6 640 424V472Z" fill="#00C2F0"/>
</svg>
