<svg width="25" height="24" viewBox="0 0 25 24" fill="none" xmlns="http://www.w3.org/2000/svg">
<path d="M8.75 16.25H16.25V18.75H8.75V16.25ZM25 17.5H21.25V21.25C21.25 21.913 20.9866 22.5489 20.5178 23.0178C20.0489 23.4866 19.413 23.75 18.75 23.75H6.25C5.58696 23.75 4.95107 23.4866 4.48223 23.0178C4.01339 22.5489 3.75 21.913 3.75 21.25V17.5H0V7.5C0 6.83696 0.263392 6.20107 0.732233 5.73223C1.20107 5.26339 1.83696 5 2.5 5H3.75V2.5C3.75 1.83696 4.01339 1.20107 4.48223 0.732233C4.95107 0.263392 5.58696 0 6.25 0H18.75C19.413 0 20.0489 0.263392 20.5178 0.732233C20.9866 1.20107 21.25 1.83696 21.25 2.5V5H22.5C23.163 5 23.7989 5.26339 24.2678 5.73223C24.7366 6.20107 25 6.83696 25 7.5V17.5ZM6.25 5H18.75V2.5H6.25V5ZM18.75 13.75H6.25V21.25H18.75V13.75ZM22.5 9.375C22.4999 9.12869 22.4513 8.88481 22.357 8.65728C22.2627 8.42975 22.1244 8.22303 21.9502 8.04892C21.776 7.87481 21.5692 7.73672 21.3416 7.64253C21.114 7.54835 20.8701 7.49992 20.6238 7.5C20.3774 7.50008 20.1336 7.54868 19.906 7.64301C19.6785 7.73735 19.4718 7.87557 19.2977 8.0498C19.1236 8.22402 18.9855 8.43084 18.8913 8.65843C18.7971 8.88602 18.7487 9.12994 18.7488 9.37625C18.7489 9.8737 18.9467 10.3507 19.2985 10.7023C19.6504 11.054 20.1276 11.2514 20.625 11.2513C21.1224 11.2511 21.5995 11.0533 21.9511 10.7015C22.3027 10.3496 22.5002 9.87245 22.5 9.375Z" fill="#00C2F0"/>
</svg>
