<svg width="20" height="20" viewBox="0 0 20 20" fill="none" xmlns="http://www.w3.org/2000/svg">
<g clip-path="url(#clip0)">
<path d="M19.4141 9.45315H10.5859V8.82815C10.5859 7.85889 9.79738 7.07034 8.82812 7.07034H1.75781C1.43473 7.07034 1.17188 6.80749 1.17188 6.4844C1.17188 6.16132 1.43473 5.89846 1.75781 5.89846H11.0297C12.4776 5.89846 13.8934 5.42155 15.033 4.56905L15.9285 7.25561C16.0048 7.48444 16.2134 7.64311 16.4543 7.6555C16.4645 7.656 16.4745 7.65628 16.4845 7.65628C16.7137 7.65628 16.9232 7.52214 17.0183 7.31159L19.948 0.827214C20.0373 0.629636 20.0101 0.398894 19.8774 0.22741C19.7448 0.0558863 19.528 -0.0282543 19.3146 0.00850348L12.2833 1.21944C12.0419 1.261 11.8519 1.44835 11.8068 1.68913C11.7618 1.92991 11.8713 2.17327 12.0813 2.29932L14.3176 3.64112C13.3818 4.33733 12.2195 4.72659 11.0297 4.72659H1.75781C0.788555 4.72659 0 5.51514 0 6.4844C0 7.45366 0.788555 8.24221 1.75781 8.24221H8.82812C9.15121 8.24221 9.41406 8.50507 9.41406 8.82815V9.45315H0.585938C0.262344 9.45315 0 9.7155 0 10.0391V19.4141C0 19.7377 0.262344 20 0.585938 20H19.4141C19.7377 20 20 19.7377 20 19.4141V10.0391C20 9.7155 19.7377 9.45315 19.4141 9.45315ZM18.4255 1.35077L16.5668 5.46479L15.8684 3.36944C15.8234 3.2346 15.7279 3.12073 15.6139 3.05229L14.0376 2.10647L18.4255 1.35077ZM18.8281 18.8282H1.17188V10.625H18.8281V18.8282Z" fill="#0084A3"/>
<path d="M2.92969 12.9688H5.3125C5.63609 12.9688 5.89844 12.7064 5.89844 12.3828C5.89844 12.0592 5.63609 11.7969 5.3125 11.7969H2.92969C2.60609 11.7969 2.34375 12.0592 2.34375 12.3828C2.34375 12.7064 2.60609 12.9688 2.92969 12.9688Z" fill="#0084A3"/>
<path d="M7.65625 12.9688H8.82812C9.15172 12.9688 9.41406 12.7064 9.41406 12.3828C9.41406 12.0592 9.15172 11.7969 8.82812 11.7969H7.65625C7.33266 11.7969 7.07031 12.0592 7.07031 12.3828C7.07031 12.7064 7.33266 12.9688 7.65625 12.9688Z" fill="#0084A3"/>
<path d="M11.1719 12.9688H12.3438C12.6673 12.9688 12.9297 12.7064 12.9297 12.3828C12.9297 12.0592 12.6673 11.7969 12.3438 11.7969H11.1719C10.8483 11.7969 10.5859 12.0592 10.5859 12.3828C10.5859 12.7064 10.8483 12.9688 11.1719 12.9688Z" fill="#0084A3"/>
<path d="M14.6875 12.9688H17.0703C17.3939 12.9688 17.6562 12.7064 17.6562 12.3828C17.6562 12.0592 17.3939 11.7969 17.0703 11.7969H14.6875C14.3639 11.7969 14.1016 12.0592 14.1016 12.3828C14.1016 12.7064 14.3639 12.9688 14.6875 12.9688Z" fill="#0084A3"/>
<path d="M13.5156 15.3125H17.0703C17.3939 15.3125 17.6562 15.0502 17.6562 14.7266C17.6562 14.403 17.3939 14.1406 17.0703 14.1406H13.5156C13.192 14.1406 12.9297 14.403 12.9297 14.7266C12.9297 15.0502 13.192 15.3125 13.5156 15.3125Z" fill="#0084A3"/>
<path d="M10 15.3125H11.1719C11.4955 15.3125 11.7578 15.0502 11.7578 14.7266C11.7578 14.403 11.4955 14.1406 11.1719 14.1406H10C9.67641 14.1406 9.41406 14.403 9.41406 14.7266C9.41406 15.0502 9.67641 15.3125 10 15.3125Z" fill="#0084A3"/>
<path d="M8.24219 14.7266C8.24219 14.403 7.97984 14.1406 7.65625 14.1406H6.48438C6.16078 14.1406 5.89844 14.403 5.89844 14.7266C5.89844 15.0502 6.16078 15.3125 6.48438 15.3125H7.65625C7.97984 15.3125 8.24219 15.0502 8.24219 14.7266Z" fill="#0084A3"/>
<path d="M2.92969 15.3125H4.14062C4.46422 15.3125 4.72656 15.0502 4.72656 14.7266C4.72656 14.403 4.46422 14.1406 4.14062 14.1406H2.92969C2.60609 14.1406 2.34375 14.403 2.34375 14.7266C2.34375 15.0502 2.60609 15.3125 2.92969 15.3125Z" fill="#0084A3"/>
<path d="M17.0703 16.4844H15.8594C15.5358 16.4844 15.2734 16.7467 15.2734 17.0703C15.2734 17.3939 15.5358 17.6562 15.8594 17.6562H17.0703C17.3939 17.6562 17.6562 17.3939 17.6562 17.0703C17.6562 16.7467 17.3939 16.4844 17.0703 16.4844Z" fill="#0084A3"/>
<path d="M13.5156 16.4844H7.65625C7.33266 16.4844 7.07031 16.7467 7.07031 17.0703C7.07031 17.3939 7.33266 17.6562 7.65625 17.6562H13.5156C13.8392 17.6562 14.1016 17.3939 14.1016 17.0703C14.1016 16.7467 13.8392 16.4844 13.5156 16.4844Z" fill="#0084A3"/>
<path d="M5.3125 16.4844H2.92969C2.60609 16.4844 2.34375 16.7467 2.34375 17.0703C2.34375 17.3939 2.60609 17.6562 2.92969 17.6562H5.3125C5.63609 17.6562 5.89844 17.3939 5.89844 17.0703C5.89844 16.7467 5.63609 16.4844 5.3125 16.4844Z" fill="#0084A3"/>
</g>
<defs>
<clipPath id="clip0">
<rect width="20" height="20" fill="white"/>
</clipPath>
</defs>
</svg>
