<svg width="26" height="26" viewBox="0 0 26 26" fill="none" xmlns="http://www.w3.org/2000/svg">
<g clip-path="url(#clip0)">
<path d="M25.7021 13.7189C25.7018 13.7192 25.7016 13.7196 25.7012 13.7199L20.3944 19.0011C19.9968 19.3968 19.3538 19.3953 18.958 18.9977C18.5623 18.6001 18.5638 17.9571 18.9614 17.5614L22.5244 14.0156H1.01562C0.454695 14.0156 0 13.5609 0 13C0 12.4391 0.454695 11.9844 1.01562 11.9844H22.5244L18.9615 8.43864C18.5639 8.04295 18.5624 7.39991 18.9581 7.00235C19.3538 6.60468 19.9969 6.60331 20.3944 6.99889L25.7013 12.2801C25.7016 12.2804 25.7018 12.2808 25.7022 12.2811C26.0999 12.6781 26.0987 13.3232 25.7021 13.7189Z" fill="#686868"/>
</g>
<defs>
<clipPath id="clip0">
<rect width="26" height="26" fill="white" transform="matrix(1 0 0 -1 0 26)"/>
</clipPath>
</defs>
</svg>
