<svg width="34" height="34" viewBox="0 0 34 34" fill="none" xmlns="http://www.w3.org/2000/svg">
<circle cx="17" cy="17" r="16" fill="#008100" fill-opacity="0.2"/>
<path d="M19.82 13.783C19.7633 13.8793 19.7038 13.9502 19.6415 13.9955C19.5792 14.0408 19.4998 14.0635 19.4035 14.0635C19.3015 14.0635 19.1853 14.0182 19.055 13.9275C18.9247 13.8312 18.7603 13.7263 18.562 13.613C18.3693 13.494 18.137 13.3892 17.865 13.2985C17.593 13.2022 17.2672 13.154 16.8875 13.154C16.5305 13.154 16.216 13.2022 15.944 13.2985C15.6777 13.3892 15.4538 13.5167 15.2725 13.681C15.0912 13.8397 14.9523 14.0295 14.856 14.2505C14.7653 14.4658 14.72 14.701 14.72 14.956C14.72 15.2847 14.8022 15.5567 14.9665 15.772C15.1365 15.9873 15.3575 16.1715 15.6295 16.3245C15.9015 16.4775 16.2103 16.6107 16.556 16.724C16.9017 16.8373 17.2558 16.9563 17.6185 17.081C17.9812 17.2 18.3353 17.3388 18.681 17.4975C19.0267 17.6562 19.3355 17.8573 19.6075 18.101C19.8795 18.339 20.0977 18.6337 20.262 18.985C20.432 19.3307 20.517 19.7557 20.517 20.26C20.517 20.7983 20.4235 21.3027 20.2365 21.773C20.0552 22.2433 19.7888 22.6542 19.4375 23.0055C19.0862 23.3568 18.6527 23.6345 18.137 23.8385C17.627 24.0368 17.0462 24.136 16.3945 24.136C16.0035 24.136 15.6238 24.0963 15.2555 24.017C14.8872 23.9433 14.5387 23.8385 14.21 23.7025C13.8813 23.5608 13.5725 23.3937 13.2835 23.201C13.0002 23.0027 12.7452 22.7817 12.5185 22.538L13.037 21.671C13.088 21.603 13.1475 21.5463 13.2155 21.501C13.2892 21.4557 13.3713 21.433 13.462 21.433C13.581 21.433 13.717 21.4953 13.87 21.62C14.0287 21.7447 14.2213 21.8835 14.448 22.0365C14.6803 22.1838 14.9552 22.3198 15.2725 22.4445C15.5955 22.5692 15.9865 22.6315 16.4455 22.6315C16.8195 22.6315 17.1538 22.5833 17.4485 22.487C17.7432 22.385 17.9897 22.2433 18.188 22.062C18.392 21.875 18.5478 21.6512 18.6555 21.3905C18.7632 21.1298 18.817 20.8408 18.817 20.5235C18.817 20.1665 18.7348 19.8747 18.5705 19.648C18.4062 19.4213 18.188 19.2315 17.916 19.0785C17.644 18.9255 17.3352 18.7952 16.9895 18.6875C16.6438 18.5798 16.2897 18.4693 15.927 18.356C15.5643 18.237 15.2102 18.101 14.8645 17.948C14.5188 17.795 14.21 17.5967 13.938 17.353C13.666 17.1037 13.4478 16.7948 13.2835 16.4265C13.1192 16.0525 13.037 15.5935 13.037 15.0495C13.037 14.6132 13.122 14.191 13.292 13.783C13.462 13.375 13.7085 13.0152 14.0315 12.7035C14.3602 12.3862 14.7625 12.134 15.2385 11.947C15.7145 11.7543 16.2585 11.658 16.8705 11.658C17.5562 11.658 18.1852 11.7685 18.7575 11.9895C19.3355 12.2048 19.837 12.5165 20.262 12.9245L19.82 13.783Z" fill="#008100"/>
</svg>
