<svg width="17" height="16" viewBox="0 0 17 16" fill="none" xmlns="http://www.w3.org/2000/svg">
<path d="M12.1498 10.0629H11.3819L11.1098 9.81589C12.0623 8.77301 12.6358 7.4191 12.6358 5.94625C12.6358 2.66209 9.80732 0 6.3179 0C2.82847 0 0 2.66209 0 5.94625C0 9.23042 2.82847 11.8925 6.3179 11.8925C7.88279 11.8925 9.32133 11.3528 10.4294 10.4563L10.6918 10.7124V11.4351L15.5517 16L17 14.6369L12.1498 10.0629ZM6.3179 10.0629C3.89766 10.0629 1.94397 8.22413 1.94397 5.94625C1.94397 3.66838 3.89766 1.82962 6.3179 1.82962C8.73814 1.82962 10.6918 3.66838 10.6918 5.94625C10.6918 8.22413 8.73814 10.0629 6.3179 10.0629Z" fill="#7B7B7B" fill-opacity="0.87"/>
</svg>
