<svg width="24" height="24" viewBox="0 0 24 24" fill="none" xmlns="http://www.w3.org/2000/svg">
<path d="M23.7602 9.59631C23.6757 9.18147 23.2714 8.91419 22.856 8.99813C22.8008 9.00938 22.7483 9.02662 22.6989 9.0486C22.3764 9.19105 22.1846 9.54265 22.2578 9.90229C23.0709 13.8954 21.4726 18.0324 18.1857 20.4419C15.9451 22.0843 13.1802 22.7529 10.4004 22.3249C7.62061 21.8967 5.18512 20.4269 3.54264 18.1861C0.12761 13.527 1.13947 6.95819 5.79837 3.5429C8.03903 1.90055 10.804 1.23198 13.5837 1.65985C16.2833 2.0757 18.6559 3.47621 20.2951 5.60891L19.5903 5.5076C19.1709 5.44704 18.7826 5.73821 18.7225 6.15726C18.6622 6.57631 18.9531 6.96483 19.3721 7.02513L21.9165 7.39104C21.9333 7.39347 21.9499 7.39334 21.9668 7.39462C21.9867 7.39615 22.0068 7.39896 22.0266 7.39896C22.4017 7.39896 22.7294 7.12338 22.7845 6.74138L23.1504 4.19703C23.2107 3.77798 22.9198 3.38946 22.5007 3.32916C22.0815 3.26873 21.6931 3.55977 21.6328 3.97882L21.5292 4.69926C19.648 2.23834 16.9204 0.62256 13.8172 0.14461C10.6328 -0.346245 7.46309 0.421849 4.89217 2.30631C2.32112 4.19116 0.634946 6.98284 0.144474 10.1673C-0.345997 13.3518 0.421586 16.5214 2.3063 19.0925C4.19089 21.6634 6.98258 23.3494 10.1671 23.84C10.7949 23.9367 11.4219 23.9845 12.0441 23.9845C14.5779 23.9845 17.0282 23.1913 19.0922 21.6782C22.8598 18.9163 24.6922 14.1738 23.7602 9.59631V9.59631Z" fill="#00C2F0"/>
<path d="M16.1745 12.2793H13.558C13.3661 11.8451 13.0171 11.4959 12.5828 11.3041V5.42281C12.5828 4.99954 12.2395 4.65625 11.8162 4.65625C11.393 4.65625 11.0497 4.99954 11.0497 5.42281V11.3041C10.3807 11.5998 9.91211 12.2687 9.91211 13.0459C9.91211 14.0958 10.7663 14.95 11.8162 14.95C12.5934 14.95 13.2624 14.4814 13.558 13.8124H16.1745C16.5978 13.8124 16.9411 13.4691 16.9411 13.0459C16.9411 12.6226 16.5978 12.2793 16.1745 12.2793ZM11.4451 13.0459C11.4451 12.8412 11.6116 12.6747 11.8161 12.6747C12.0207 12.6747 12.1873 12.8412 12.1873 13.0459C12.1873 13.2506 12.0208 13.4169 11.8161 13.4169C11.6114 13.4169 11.4451 13.2504 11.4451 13.0459Z" fill="#00C2F0"/>
</svg>
