<svg width="20" height="20" viewBox="0 0 20 20" fill="none" xmlns="http://www.w3.org/2000/svg">
<circle cx="10" cy="10" r="9" stroke="#00C2F0" stroke-width="2"/>
<path d="M6.536 6.99489C6.55747 6.99489 6.59189 6.9962 6.61381 6.99895C6.89453 7.03347 7.11285 7.29702 7.11285 7.59588V9.4437C7.11285 9.59247 7.18609 9.72765 7.32675 9.72765H7.33133C7.48353 9.72765 7.6486 9.58258 7.6486 9.4216V6.44094C7.6486 6.14208 7.83341 5.87857 8.11412 5.84401C8.13605 5.8413 8.17314 5.84 8.19458 5.84C8.49792 5.83995 8.76136 6.10246 8.76136 6.42329V9.43228C8.76136 9.58737 8.86008 9.71309 9.00668 9.71309C9.15546 9.71309 9.25594 9.58546 9.25594 9.42809V5.60099C9.25594 5.30208 9.45604 5.03858 9.7368 5.00405C9.75873 5.00131 9.78815 5 9.80963 5C10.113 4.99996 10.3688 5.26246 10.3688 5.58329V9.42844C10.3688 9.58567 10.4897 9.71309 10.6383 9.71309C10.7852 9.71309 10.9046 9.5872 10.9046 9.43193V6.44094C10.9046 6.14208 11.0994 5.87857 11.3801 5.84401C11.4021 5.8413 11.4342 5.84 11.4556 5.84C11.7589 5.83995 12.0174 6.10246 12.0174 6.42329V10.7651C12.0174 10.9262 12.1264 11.0338 12.2569 11.0338C12.317 11.0338 12.3705 11.011 12.4214 10.9601L13.0718 10.3067C13.178 10.1944 13.316 10.1383 13.4559 10.1383C13.5959 10.1383 13.7348 10.1944 13.841 10.3067C14.0533 10.5312 14.0528 10.8988 13.8405 11.1233L11.5157 14.3661C11.5154 14.3664 11.5151 14.3669 11.5151 14.3672L11.4569 15.1769C11.4478 15.3047 11.3471 15.3944 11.226 15.3944C11.2259 15.3944 11.2258 15.3944 11.2257 15.3944L7.16803 15.4C7.05197 15.3998 6.95392 15.3133 6.93875 15.1915L6.83287 14.3407C6.82838 14.3042 6.83139 14.2706 6.81255 14.2397C6.19363 13.22 6 11.5364 6 9.71313V7.57823C6.00004 7.2574 6.2327 6.99489 6.536 6.99489Z" fill="#00C2F0"/>
</svg>
