<svg width="24" height="28" viewBox="0 0 24 28" fill="none" xmlns="http://www.w3.org/2000/svg">
<path d="M18.6111 13.952C18.6111 12.6443 18.2233 11.3659 17.4968 10.2785C16.7702 9.19113 15.7375 8.34363 14.5293 7.84317C13.3211 7.34271 11.9916 7.21177 10.7089 7.4669C9.42631 7.72203 8.24812 8.35178 7.32339 9.27652C6.39866 10.2012 5.76891 11.3794 5.51377 12.6621C5.25864 13.9447 5.38958 15.2742 5.89005 16.4824C6.39051 17.6907 7.23801 18.7233 8.32538 19.4499C9.41275 20.1765 10.6912 20.5643 11.9989 20.5643C13.752 20.5623 15.4327 19.865 16.6723 18.6254C17.9119 17.3858 18.6091 15.7051 18.6111 13.952V13.952ZM6.90943 14.6867H7.59079C7.78564 14.6867 7.97251 14.6093 8.11029 14.4716C8.24807 14.3338 8.32548 14.1469 8.32548 13.952C8.32548 13.7572 8.24807 13.5703 8.11029 13.4325C7.97251 13.2948 7.78564 13.2174 7.59079 13.2174H6.90943C7.06971 12.1194 7.58011 11.1025 8.36473 10.3179C9.14934 9.53324 10.1663 9.02283 11.2642 8.86255V9.54391C11.2642 9.73877 11.3416 9.92564 11.4794 10.0634C11.6172 10.2012 11.8041 10.2786 11.9989 10.2786C12.1938 10.2786 12.3806 10.2012 12.5184 10.0634C12.6562 9.92564 12.7336 9.73877 12.7336 9.54391V8.86255C13.8316 9.02283 14.8485 9.53324 15.6331 10.3179C16.4177 11.1025 16.9281 12.1194 17.0884 13.2174H16.4071C16.2122 13.2174 16.0253 13.2948 15.8876 13.4325C15.7498 13.5703 15.6724 13.7572 15.6724 13.952C15.6724 14.1469 15.7498 14.3338 15.8876 14.4716C16.0253 14.6093 16.2122 14.6867 16.4071 14.6867H17.0884C16.9281 15.7847 16.4177 16.8016 15.6331 17.5862C14.8485 18.3709 13.8316 18.8813 12.7336 19.0415V18.3602C12.7336 18.1653 12.6562 17.9785 12.5184 17.8407C12.3806 17.7029 12.1938 17.6255 11.9989 17.6255C11.8041 17.6255 11.6172 17.7029 11.4794 17.8407C11.3416 17.9785 11.2642 18.1653 11.2642 18.3602V19.0415C10.1663 18.8813 9.14934 18.3709 8.36473 17.5862C7.58011 16.8016 7.06971 15.7847 6.90943 14.6867V14.6867Z" fill="#00C2F0"/>
<path d="M11.67 14.6085C11.8079 14.6774 11.964 14.7012 12.1162 14.6765C12.2684 14.6518 12.409 14.5799 12.518 14.4708L14.4772 12.5117C14.6131 12.3735 14.689 12.1872 14.6882 11.9934C14.6874 11.7996 14.61 11.614 14.473 11.4769C14.336 11.3399 14.1503 11.2625 13.9565 11.2617C13.7627 11.2609 13.5764 11.3368 13.4382 11.4727L11.8535 13.0575L10.368 12.3147C10.1937 12.2276 9.99193 12.2132 9.80708 12.2748C9.62222 12.3364 9.46941 12.469 9.38226 12.6432C9.29512 12.8175 9.28077 13.0193 9.34238 13.2041C9.40399 13.389 9.53651 13.5418 9.71079 13.6289L11.67 14.6085Z" fill="#00C2F0"/>
<path d="M0.734689 14.6895C0.929541 14.6895 1.11641 14.6121 1.25419 14.4744C1.39197 14.3366 1.46938 14.1497 1.46938 13.9549C1.46938 8.42633 5.7517 3.87952 11.1734 3.45664L10.5009 4.12931C10.4317 4.19733 10.3767 4.27836 10.3391 4.36774C10.3014 4.45711 10.2818 4.55306 10.2814 4.65004C10.281 4.74702 10.2998 4.84312 10.3368 4.9328C10.3737 5.02248 10.428 5.10396 10.4966 5.17253C10.5652 5.24111 10.6467 5.29543 10.7363 5.33237C10.826 5.3693 10.9221 5.38811 11.0191 5.38771C11.1161 5.38732 11.212 5.36773 11.3014 5.33006C11.3908 5.2924 11.4718 5.23742 11.5398 5.16829L13.499 3.20912C13.6368 3.07134 13.7142 2.88447 13.7142 2.68963C13.7142 2.49479 13.6368 2.30792 13.499 2.17014L11.5398 0.210972C11.4017 0.0750446 11.2154 -0.000783092 11.0216 6.09904e-06C10.8278 0.00079529 10.6421 0.0781374 10.5051 0.215185C10.368 0.352234 10.2907 0.537884 10.2899 0.731698C10.2891 0.925511 10.3649 1.11179 10.5009 1.24994L11.2311 1.98029C4.9714 2.37806 0 7.59637 0 13.9549C0 14.1497 0.0774044 14.3366 0.215185 14.4744C0.352966 14.6121 0.539838 14.6895 0.734689 14.6895Z" fill="#00C2F0"/>
<path d="M23.2646 13.2227C23.0697 13.2227 22.8828 13.3001 22.7451 13.4378C22.6073 13.5756 22.5299 13.7625 22.5299 13.9573C22.5299 19.4859 18.2475 24.0327 12.8259 24.4556L13.4985 23.7829C13.6344 23.6447 13.7102 23.4585 13.7094 23.2646C13.7086 23.0708 13.6313 22.8852 13.4943 22.7481C13.3572 22.6111 13.1716 22.5337 12.9777 22.533C12.7839 22.5322 12.5977 22.608 12.4595 22.7439L10.5003 24.7031C10.3626 24.8409 10.2852 25.0277 10.2852 25.2226C10.2852 25.4174 10.3626 25.6043 10.5003 25.7421L12.4595 27.7012C12.5977 27.8372 12.7839 27.913 12.9777 27.9122C13.1716 27.9114 13.3572 27.8341 13.4943 27.697C13.6313 27.56 13.7086 27.3743 13.7094 27.1805C13.7102 26.9867 13.6344 26.8004 13.4985 26.6623L12.7682 25.9319C19.0279 25.5341 23.9993 20.3158 23.9993 13.9573C23.9993 13.7625 23.9219 13.5756 23.7841 13.4378C23.6463 13.3001 23.4594 13.2227 23.2646 13.2227Z" fill="#00C2F0"/>
</svg>
