<svg width="20" height="20" viewBox="0 0 20 20" fill="none" xmlns="http://www.w3.org/2000/svg">
<g clip-path="url(#clip0)">
<path d="M8.00023 12H12.0002V6H15.0002L10.0002 1L5.00023 6H8.00023V12ZM19.3382 13.532C19.1282 13.308 17.7272 11.809 17.3272 11.418C17.0469 11.1493 16.6735 10.9995 16.2852 11H14.5282L17.5922 13.994H14.0482C14.0001 13.9931 13.9525 14.0049 13.9104 14.0283C13.8682 14.0516 13.833 14.0857 13.8082 14.127L12.9922 16H7.00823L6.19223 14.127C6.16729 14.0858 6.13203 14.0519 6.08992 14.0286C6.04782 14.0052 6.00035 13.9933 5.95223 13.994H2.40823L5.47123 11H3.71523C3.31823 11 2.93923 11.159 2.67323 11.418C2.27323 11.81 0.872225 13.309 0.662225 13.532C0.173225 14.053 -0.0957749 14.468 0.0322251 14.981L0.593225 18.055C0.721225 18.569 1.28423 18.991 1.84523 18.991H18.1572C18.7182 18.991 19.2812 18.569 19.4092 18.055L19.9702 14.981C20.0962 14.468 19.8282 14.053 19.3382 13.532Z" fill="#00C2F0"/>
</g>
<defs>
<clipPath id="clip0">
<rect width="20" height="20" fill="white"/>
</clipPath>
</defs>
</svg>
