<svg width="34" height="34" viewBox="0 0 34 34" fill="none" xmlns="http://www.w3.org/2000/svg">
<circle cx="17" cy="17" r="16" fill="#00C2F0" fill-opacity="0.2"/>
<g clip-path="url(#clip0)">
<path d="M17.0563 18.9545C18.1608 18.9482 19.0512 18.0477 19.0449 16.9432C19.0387 15.8386 18.1382 14.9483 17.0337 14.9545C15.9291 14.9608 15.0388 15.8612 15.045 16.9658C15.0512 18.0703 15.9517 18.9607 17.0563 18.9545Z" fill="#00C2F0"/>
<path d="M24.5138 16.7424C23.9172 15.2246 22.8888 13.9148 21.5559 12.9751C20.223 12.0353 18.6439 11.5068 17.0138 11.4547C15.3845 11.5252 13.8115 12.0716 12.4892 13.0263C11.167 13.9811 10.1535 15.3023 9.57407 16.8268C9.53498 16.9369 9.53566 17.0572 9.57599 17.1668C10.1727 18.6846 11.201 19.9944 12.5339 20.9341C13.8669 21.8739 15.4459 22.4024 17.076 22.4545C18.7054 22.384 20.2784 21.8376 21.6006 20.8829C22.9228 19.9281 23.9363 18.6068 24.5158 17.0824C24.5548 16.9723 24.5542 16.852 24.5138 16.7424ZM17.0633 20.2045C16.4205 20.2082 15.7911 20.0211 15.2546 19.667C14.7181 19.3129 14.2987 18.8077 14.0494 18.2153C13.8 17.6228 13.732 16.9697 13.8538 16.3386C13.9757 15.7074 14.2819 15.1266 14.7339 14.6695C15.1858 14.2124 15.7631 13.8996 16.3929 13.7707C17.0226 13.6417 17.6764 13.7024 18.2716 13.945C18.8669 14.1876 19.3768 14.6013 19.7369 15.1337C20.0971 15.6662 20.2912 16.2934 20.2949 16.9362C20.2984 17.7978 19.9602 18.6256 19.3545 19.2382C18.7487 19.8509 17.9248 20.1984 17.0633 20.2045Z" fill="#00C2F0"/>
</g>
<defs>
<clipPath id="clip0">
<rect width="16" height="16" fill="white" transform="translate(9 9) rotate(-0.323827)"/>
</clipPath>
</defs>
</svg>
