<svg width="20" height="20" viewBox="0 0 20 20" fill="none" xmlns="http://www.w3.org/2000/svg">
<path d="M17.9056 14.8713C17.5594 14.6137 17.07 14.6856 16.8124 15.0318C16.6708 15.2222 16.5192 15.4089 16.3619 15.5868C16.0762 15.9101 16.1066 16.4038 16.4298 16.6896C16.5785 16.821 16.763 16.8856 16.9469 16.8856C17.163 16.8856 17.3782 16.7964 17.5326 16.6217C17.7189 16.411 17.8983 16.1899 18.0661 15.9643C18.3236 15.6182 18.2518 15.1288 17.9056 14.8713Z" fill="#00C2F0"/>
<path d="M19.2125 11.2075C18.7911 11.1157 18.3747 11.3831 18.2829 11.8047C18.2324 12.0366 18.1714 12.2689 18.1014 12.4953C17.9741 12.9076 18.205 13.345 18.6172 13.4724C18.6941 13.4961 18.7717 13.5074 18.8481 13.5074C19.1817 13.5074 19.4906 13.292 19.5943 12.9566C19.6773 12.6879 19.7498 12.4121 19.8097 12.137C19.9014 11.7155 19.6341 11.2993 19.2125 11.2075Z" fill="#00C2F0"/>
<path d="M14.147 17.3727C13.9396 17.4885 13.7248 17.5967 13.5087 17.6943C13.1155 17.8719 12.9407 18.3346 13.1183 18.7278C13.2487 19.0167 13.5331 19.1877 13.8307 19.1877C13.9382 19.1877 14.0475 19.1654 14.1518 19.1183C14.4082 19.0025 14.6628 18.8742 14.9087 18.7369C15.2855 18.5266 15.4204 18.0507 15.21 17.6739C14.9997 17.2973 14.5238 17.1624 14.147 17.3727Z" fill="#00C2F0"/>
<path d="M9.22057 3.75V9.67641L6.35576 12.5412C6.05068 12.8463 6.05068 13.3409 6.35576 13.646C6.50834 13.7986 6.70822 13.8748 6.90822 13.8748C7.10814 13.8748 7.30811 13.7986 7.46068 13.646L10.5543 10.5524C10.7008 10.4059 10.7831 10.2072 10.7831 10V3.75C10.7831 3.31852 10.4333 2.96875 10.0018 2.96875C9.57033 2.96875 9.22057 3.31852 9.22057 3.75Z" fill="#00C2F0"/>
<path d="M19.2188 1.67969C18.7873 1.67969 18.4375 2.02945 18.4375 2.46094V4.63031C16.6191 1.77844 13.4434 0 10 0C7.32891 0 4.8177 1.0402 2.92891 2.92891C1.0402 4.8177 0 7.32891 0 10C0 12.6711 1.0402 15.1823 2.92891 17.0711C4.8177 18.9598 7.32891 20 10 20C10.0066 20 10.013 19.9992 10.0195 19.999C10.0261 19.9992 10.0325 20 10.0391 20C10.3206 20 10.605 19.9881 10.8843 19.9648C11.3142 19.9287 11.6336 19.551 11.5976 19.1211C11.5616 18.6911 11.1843 18.3716 10.7539 18.4077C10.5178 18.4275 10.2773 18.4375 10.0391 18.4375C10.0325 18.4375 10.0261 18.4383 10.0195 18.4385C10.013 18.4383 10.0066 18.4375 10 18.4375C5.34754 18.4375 1.5625 14.6525 1.5625 10C1.5625 5.34754 5.34754 1.5625 10 1.5625C12.9984 1.5625 15.7561 3.16066 17.2631 5.70312H15.115C14.6835 5.70312 14.3337 6.05289 14.3337 6.48438C14.3337 6.91586 14.6835 7.26562 15.115 7.26562H17.5C17.9758 7.26562 18.4209 7.13191 18.7999 6.90027C18.8243 6.88637 18.8477 6.87141 18.87 6.85527C19.55 6.40797 20 5.63855 20 4.76562V2.46094C20 2.02945 19.6502 1.67969 19.2188 1.67969Z" fill="#00C2F0"/>
</svg>
