<svg width="20" height="20" viewBox="0 0 20 20" fill="none" xmlns="http://www.w3.org/2000/svg">
<path d="M19.375 0.00195312H0.625C0.28 0.00195312 0 0.281953 0 0.626953V9.37695C0 9.72195 0.28 10.0019 0.625 10.0019H2.9225C3.42 9.1307 3.75375 8.2882 3.95875 7.50195H3.75C3.06 7.50195 2.5 6.94195 2.5 6.25195V3.75195C2.5 3.06195 3.06 2.50195 3.75 2.50195H16.25C16.94 2.50195 17.5 3.06195 17.5 3.75195V6.25195C17.5 6.82695 17.1038 7.28945 16.5763 7.4357C16.43 8.24695 16.1888 9.1082 15.8325 10.0019H19.375C19.72 10.0019 20 9.72195 20 9.37695V0.626953C20 0.281953 19.72 0.00195312 19.375 0.00195312Z" fill="#00C2F0"/>
<path d="M15.4436 3.75098H5.43361C5.65486 5.37598 5.60111 8.03848 3.84236 10.9247C0.638612 16.1797 2.50361 19.5447 2.58361 19.686C2.69486 19.8797 2.90236 19.9997 3.12611 19.9997H11.8761C12.0974 19.9997 12.3011 19.8797 12.4136 19.6897C12.5261 19.4997 12.5286 19.261 12.4211 19.0672C12.3561 18.951 10.8686 16.1572 13.6599 11.576C15.5611 8.45723 15.6724 5.59848 15.4436 3.75098ZM7.49986 5.62598C7.49986 5.28098 7.77986 5.00098 8.12486 5.00098C8.46986 5.00098 8.74986 5.28098 8.74986 5.62598V6.87598C8.74986 7.22098 8.46986 7.50098 8.12486 7.50098C7.77986 7.50098 7.49986 7.22098 7.49986 6.87598V5.62598ZM9.99986 16.876C9.99986 17.221 9.71986 17.501 9.37486 17.501C9.02986 17.501 8.74986 17.221 8.74986 16.876V15.626C8.74986 15.281 9.02986 15.001 9.37486 15.001C9.71986 15.001 9.99986 15.281 9.99986 15.626V16.876ZM8.74986 13.4385C7.71611 13.4385 6.87486 12.4572 6.87486 11.251C6.87486 10.0447 7.71611 9.06348 8.74986 9.06348C9.78361 9.06348 10.6249 10.0447 10.6249 11.251C10.6249 12.4572 9.78361 13.4385 8.74986 13.4385Z" fill="#00C2F0"/>
</svg>
