<svg width="21" height="20" viewBox="0 0 21 20" fill="none" xmlns="http://www.w3.org/2000/svg">
<path d="M10.0038 19.9999C8.02552 20.0011 6.09139 19.4154 4.44616 18.3169C2.80094 17.2184 1.51858 15.6565 0.761378 13.8289C0.00417712 12.0013 -0.193824 9.99012 0.192432 8.04994C0.578689 6.10976 1.53184 4.32779 2.93126 2.92953C4.807 1.05378 7.35106 0 10.0038 0C12.6565 0 15.2005 1.05378 17.0763 2.92953C18.952 4.80528 20.0058 7.34934 20.0058 10.002C20.0058 12.6548 18.952 15.1988 17.0763 17.0746C16.1494 18.0056 15.0471 18.7436 13.8331 19.2457C12.6191 19.7479 11.3175 20.0042 10.0038 19.9999ZM2.00545 10.174C2.02817 12.2877 2.88671 14.3065 4.39342 15.7891C5.90014 17.2717 7.93249 18.0976 10.0463 18.0862C12.1601 18.0749 14.1835 17.2272 15.6742 15.7285C17.1648 14.2298 18.0016 12.2019 18.0016 10.088C18.0016 7.97419 17.1648 5.9463 15.6742 4.44758C14.1835 2.94886 12.1601 2.10119 10.0463 2.08982C7.93249 2.07846 5.90014 2.90434 4.39342 4.38695C2.88671 5.86956 2.02817 7.88833 2.00545 10.002V10.174ZM7.41331 14.0012L6.00361 12.5915L8.59407 10.002L6.00461 7.41259L7.41431 6.00289L10.0038 8.59234L12.5932 6.00289L14.0029 7.41259L11.4135 10.002L14.0029 12.5915L12.5952 14.0012L10.0038 11.4117L7.41331 14.0012Z" fill="#0084A3"/>
</svg>
